<svg width="172" height="52" viewBox="0 0 172 52" fill="none" xmlns="http://www.w3.org/2000/svg">
<rect width="172" height="52" rx="4" fill="#ED990D"/>
<path d="M48.0294 24.168C47.8054 23.7573 47.4974 23.4447 47.1054 23.23C46.7134 23.0153 46.256 22.908 45.7334 22.908C45.1547 22.908 44.6414 23.0387 44.1934 23.3C43.7454 23.5613 43.3954 23.9347 43.1434 24.42C42.8914 24.9053 42.7654 25.4653 42.7654 26.1C42.7654 26.7533 42.8914 27.3227 43.1434 27.808C43.4047 28.2933 43.764 28.6667 44.2214 28.928C44.6787 29.1893 45.2107 29.32 45.8174 29.32C46.564 29.32 47.1754 29.124 47.6514 28.732C48.1274 28.3307 48.44 27.7753 48.5894 27.066H45.2294V25.568H50.5214V27.276C50.3907 27.9573 50.1107 28.5873 49.6814 29.166C49.252 29.7447 48.6967 30.2113 48.0154 30.566C47.3434 30.9113 46.5874 31.084 45.7474 31.084C44.8047 31.084 43.9507 30.874 43.1854 30.454C42.4294 30.0247 41.832 29.432 41.3934 28.676C40.964 27.92 40.7494 27.0613 40.7494 26.1C40.7494 25.1387 40.964 24.28 41.3934 23.524C41.832 22.7587 42.4294 22.166 43.1854 21.746C43.9507 21.3167 44.8 21.102 45.7334 21.102C46.8347 21.102 47.7914 21.3727 48.6034 21.914C49.4154 22.446 49.9754 23.1973 50.2834 24.168H48.0294ZM54.0015 22.81V25.26H57.2915V26.814H54.0015V29.404H57.7115V31H52.0415V21.214H57.7115V22.81H54.0015ZM66.2126 21.228V22.81H63.6086V31H61.6486V22.81H59.0446V21.228H66.2126ZM74.4927 31.098C73.8113 31.098 73.1953 30.9813 72.6447 30.748C72.1033 30.5147 71.674 30.1787 71.3567 29.74C71.0393 29.3013 70.876 28.7833 70.8667 28.186H72.9667C72.9947 28.5873 73.1347 28.9047 73.3867 29.138C73.648 29.3713 74.0027 29.488 74.4507 29.488C74.908 29.488 75.2673 29.3807 75.5287 29.166C75.79 28.942 75.9207 28.6527 75.9207 28.298C75.9207 28.0087 75.832 27.7707 75.6547 27.584C75.4773 27.3973 75.2533 27.2527 74.9827 27.15C74.7213 27.038 74.3573 26.9167 73.8907 26.786C73.256 26.5993 72.738 26.4173 72.3367 26.24C71.9447 26.0533 71.604 25.778 71.3147 25.414C71.0347 25.0407 70.8947 24.546 70.8947 23.93C70.8947 23.3513 71.0393 22.8473 71.3287 22.418C71.618 21.9887 72.024 21.662 72.5467 21.438C73.0693 21.2047 73.6667 21.088 74.3387 21.088C75.3467 21.088 76.1633 21.3353 76.7887 21.83C77.4233 22.3153 77.7733 22.9967 77.8387 23.874H75.6827C75.664 23.538 75.5193 23.2627 75.2487 23.048C74.9873 22.824 74.6373 22.712 74.1987 22.712C73.816 22.712 73.508 22.81 73.2747 23.006C73.0507 23.202 72.9387 23.4867 72.9387 23.86C72.9387 24.1213 73.0227 24.3407 73.1907 24.518C73.368 24.686 73.5827 24.826 73.8347 24.938C74.096 25.0407 74.46 25.162 74.9267 25.302C75.5613 25.4887 76.0793 25.6753 76.4807 25.862C76.882 26.0487 77.2273 26.3287 77.5167 26.702C77.806 27.0753 77.9507 27.5653 77.9507 28.172C77.9507 28.6947 77.8153 29.18 77.5447 29.628C77.274 30.076 76.8773 30.4353 76.3547 30.706C75.832 30.9673 75.2113 31.098 74.4927 31.098ZM86.3699 21.228V22.81H83.7659V31H81.8059V22.81H79.2019V21.228H86.3699ZM93.862 29.138H89.97L89.326 31H87.268L90.782 21.214H93.064L96.578 31H94.506L93.862 29.138ZM93.33 27.57L91.916 23.482L90.502 27.57H93.33ZM103.001 31L100.845 27.192H99.9215V31H97.9615V21.228H101.629C102.385 21.228 103.029 21.3633 103.561 21.634C104.093 21.8953 104.49 22.2547 104.751 22.712C105.022 23.16 105.157 23.664 105.157 24.224C105.157 24.868 104.971 25.4513 104.597 25.974C104.224 26.4873 103.669 26.842 102.931 27.038L105.269 31H103.001ZM99.9215 25.722H101.559C102.091 25.722 102.488 25.596 102.749 25.344C103.011 25.0827 103.141 24.7233 103.141 24.266C103.141 23.818 103.011 23.4727 102.749 23.23C102.488 22.978 102.091 22.852 101.559 22.852H99.9215V25.722ZM113.65 21.228V22.81H111.046V31H109.086V22.81H106.482V21.228H113.65ZM117.11 22.81V25.26H120.4V26.814H117.11V29.404H120.82V31H115.15V21.214H120.82V22.81H117.11ZM126.087 21.228C127.114 21.228 128.015 21.4287 128.789 21.83C129.573 22.2313 130.175 22.8053 130.595 23.552C131.025 24.2893 131.239 25.148 131.239 26.128C131.239 27.108 131.025 27.9667 130.595 28.704C130.175 29.432 129.573 29.9967 128.789 30.398C128.015 30.7993 127.114 31 126.087 31H122.671V21.228H126.087ZM126.017 29.334C127.044 29.334 127.837 29.054 128.397 28.494C128.957 27.934 129.237 27.1453 129.237 26.128C129.237 25.1107 128.957 24.3173 128.397 23.748C127.837 23.1693 127.044 22.88 126.017 22.88H124.631V29.334H126.017Z" fill="white"/>
</svg>
