<svg width="320" height="48" viewBox="0 0 320 48" fill="none" xmlns="http://www.w3.org/2000/svg">
<rect width="320" height="48" fill="#6546BE"/>
<path d="M131.973 27.138H128.081L127.437 29H125.379L128.893 19.214H131.175L134.689 29H132.617L131.973 27.138ZM131.441 25.57L130.027 21.482L128.613 25.57H131.441ZM141.616 23.988C142.167 24.0907 142.62 24.366 142.974 24.814C143.329 25.262 143.506 25.7753 143.506 26.354C143.506 26.8767 143.376 27.3387 143.114 27.74C142.862 28.132 142.494 28.44 142.008 28.664C141.523 28.888 140.949 29 140.286 29H136.072V19.228H140.104C140.767 19.228 141.336 19.3353 141.812 19.55C142.298 19.7647 142.662 20.0633 142.904 20.446C143.156 20.8287 143.282 21.2627 143.282 21.748C143.282 22.3173 143.128 22.7933 142.82 23.176C142.522 23.5587 142.12 23.8293 141.616 23.988ZM138.032 23.26H139.824C140.291 23.26 140.65 23.1573 140.902 22.952C141.154 22.7373 141.28 22.434 141.28 22.042C141.28 21.65 141.154 21.3467 140.902 21.132C140.65 20.9173 140.291 20.81 139.824 20.81H138.032V23.26ZM140.006 27.404C140.482 27.404 140.851 27.292 141.112 27.068C141.383 26.844 141.518 26.5267 141.518 26.116C141.518 25.696 141.378 25.3693 141.098 25.136C140.818 24.8933 140.44 24.772 139.964 24.772H138.032V27.404H140.006ZM149.674 29.098C148.76 29.098 147.92 28.8833 147.154 28.454C146.389 28.0247 145.782 27.432 145.334 26.676C144.886 25.9107 144.662 25.0473 144.662 24.086C144.662 23.134 144.886 22.28 145.334 21.524C145.782 20.7587 146.389 20.1613 147.154 19.732C147.92 19.3027 148.76 19.088 149.674 19.088C150.598 19.088 151.438 19.3027 152.194 19.732C152.96 20.1613 153.562 20.7587 154 21.524C154.448 22.28 154.672 23.134 154.672 24.086C154.672 25.0473 154.448 25.9107 154 26.676C153.562 27.432 152.96 28.0247 152.194 28.454C151.429 28.8833 150.589 29.098 149.674 29.098ZM149.674 27.348C150.262 27.348 150.78 27.2173 151.228 26.956C151.676 26.6853 152.026 26.3027 152.278 25.808C152.53 25.3133 152.656 24.7393 152.656 24.086C152.656 23.4327 152.53 22.8633 152.278 22.378C152.026 21.8833 151.676 21.5053 151.228 21.244C150.78 20.9827 150.262 20.852 149.674 20.852C149.086 20.852 148.564 20.9827 148.106 21.244C147.658 21.5053 147.308 21.8833 147.056 22.378C146.804 22.8633 146.678 23.4327 146.678 24.086C146.678 24.7393 146.804 25.3133 147.056 25.808C147.308 26.3027 147.658 26.6853 148.106 26.956C148.564 27.2173 149.086 27.348 149.674 27.348ZM158.133 19.228V25.276C158.133 25.9387 158.305 26.4473 158.651 26.802C158.996 27.1473 159.481 27.32 160.107 27.32C160.741 27.32 161.231 27.1473 161.577 26.802C161.922 26.4473 162.095 25.9387 162.095 25.276V19.228H164.069V25.262C164.069 26.0927 163.887 26.7973 163.523 27.376C163.168 27.9453 162.687 28.3747 162.081 28.664C161.483 28.9533 160.816 29.098 160.079 29.098C159.351 29.098 158.688 28.9533 158.091 28.664C157.503 28.3747 157.036 27.9453 156.691 27.376C156.345 26.7973 156.173 26.0927 156.173 25.262V19.228H158.133ZM172.682 19.228V20.81H170.078V29H168.118V20.81H165.514V19.228H172.682ZM179.52 19.228V25.276C179.52 25.9387 179.693 26.4473 180.038 26.802C180.384 27.1473 180.869 27.32 181.494 27.32C182.129 27.32 182.619 27.1473 182.964 26.802C183.31 26.4473 183.482 25.9387 183.482 25.276V19.228H185.456V25.262C185.456 26.0927 185.274 26.7973 184.91 27.376C184.556 27.9453 184.075 28.3747 183.468 28.664C182.871 28.9533 182.204 29.098 181.466 29.098C180.738 29.098 180.076 28.9533 179.478 28.664C178.89 28.3747 178.424 27.9453 178.078 27.376C177.733 26.7973 177.56 26.0927 177.56 25.262V19.228H179.52ZM190.794 29.098C190.113 29.098 189.497 28.9813 188.946 28.748C188.405 28.5147 187.975 28.1787 187.658 27.74C187.341 27.3013 187.177 26.7833 187.168 26.186H189.268C189.296 26.5873 189.436 26.9047 189.688 27.138C189.949 27.3713 190.304 27.488 190.752 27.488C191.209 27.488 191.569 27.3807 191.83 27.166C192.091 26.942 192.222 26.6527 192.222 26.298C192.222 26.0087 192.133 25.7707 191.956 25.584C191.779 25.3973 191.555 25.2527 191.284 25.15C191.023 25.038 190.659 24.9167 190.192 24.786C189.557 24.5993 189.039 24.4173 188.638 24.24C188.246 24.0533 187.905 23.778 187.616 23.414C187.336 23.0407 187.196 22.546 187.196 21.93C187.196 21.3513 187.341 20.8473 187.63 20.418C187.919 19.9887 188.325 19.662 188.848 19.438C189.371 19.2047 189.968 19.088 190.64 19.088C191.648 19.088 192.465 19.3353 193.09 19.83C193.725 20.3153 194.075 20.9967 194.14 21.874H191.984C191.965 21.538 191.821 21.2627 191.55 21.048C191.289 20.824 190.939 20.712 190.5 20.712C190.117 20.712 189.809 20.81 189.576 21.006C189.352 21.202 189.24 21.4867 189.24 21.86C189.24 22.1213 189.324 22.3407 189.492 22.518C189.669 22.686 189.884 22.826 190.136 22.938C190.397 23.0407 190.761 23.162 191.228 23.302C191.863 23.4887 192.381 23.6753 192.782 23.862C193.183 24.0487 193.529 24.3287 193.818 24.702C194.107 25.0753 194.252 25.5653 194.252 26.172C194.252 26.6947 194.117 27.18 193.846 27.628C193.575 28.076 193.179 28.4353 192.656 28.706C192.133 28.9673 191.513 29.098 190.794 29.098Z" fill="white"/>
</svg>
